/* XPM */
static char *sprite[] = {
"64 64 3 1",
"  c #000000",
". c #FF0000",
"X c #FFFF00",
"                                                                ",
"                                                                ",
"                                                                ",
"                          ....XXXX....                          ",
"                        ....XXXXXXXX....                        ",
"                      ....XXXXXXXXXXXX....                      ",
"                    ....XXXXXXXXXXXXXXXX....                    ",
"                  ....XXXXXXXXXXXXXXXXXX....                    ",
"                ....XXXXXXXXXXXXXXXXXXXXXX....                  ",
"              ....XXXXXXXXXXXXXXXXXXXXXXXX....                  ",
"            ....XXXXXXXXXXXXXXXXXXXXXXXXXX....                  ",
"          ....XXXXXXXXXXXXXXXXXXXXXXXXXXXX....                  ",
"        ....XXXXXXXXXXXXXXXXXXXXXXXXXXXXXX....                  ",
"      ....XXXXXXXXXXXXXXXXXXXXXXXXXXXXXXXX....                  ",
"    ....XXXXXXXXXXXXXXXXXXXXXXXXXXXXXXXXXX....                  ",
"  ....XXXXXXXXXXXXXXXXXXXXXXXXXXXXXXXXXXXX....                  ",
"  ....XXXXXXXXXXXXXXXXXXXXXXXXXXXXXXXXXXXX....                  ",
"  ....XXXXXXXXXXXXXXXXXXXXXXXXXXXXXXXXXXXX....                  ",
"  ....XXXXXXXXXXXXXXXXXXXXXXXXXXXXXXXXXXXX....                  ",
"  ....XXXXXXXXXXXXXXXXXXXXXXXXXXXXXXXXXXXX....                  ",
"  ....XXXXXXXXXXXXXXXXXXXXXXXXXXXXXXXXXXXX....                  ",
"  ....XXXXXXXXXXXXXXXXXXXXXXXXXXXXXXXXXXXX....                  ",
"  ....XXXXXXXXXXXXXXXXXXXXXXXXXXXXXXXXXXXX....                  ",
"  ....XXXXXXXXXXXXXXXXXXXXXXXXXXXXXXXXXXXX....                  ",
"  ....XXXXXXXXXXXXXXXXXXXXXXXXXXXXXXXXXXXX....                  ",
"  ....XXXXXXXXXXXXXXXXXXXXXXXXXXXXXXXXXXXX....                  ",
"  ....XXXXXXXXXXXXXXXXXXXXXXXXXXXXXXXXXXXX....                  ",
"  ....XXXXXXXXXXXXXXXXXXXXXXXXXXXXXXXXXXXX....                  ",
"  ....XXXXXXXXXXXXXXXXXXXXXXXXXXXXXXXXXXXX....                  ",
"  ....XXXXXXXXXXXXXXXXXXXXXXXXXXXXXXXXXXXX....                  ",
"  ....XXXXXXXXXXXXXXXXXXXXXXXXXXXXXXXXXXXX....                  ",
"  ....XXXXXXXXXXXXXXXXXXXXXXXXXXXXXXXXXXXX....                  ",
"  ....XXXXXXXXXXXXXXXXXXXXXXXXXXXXXXXXXXXX....                  ",
"  ....XXXXXXXXXXXXXXXXXXXXXXXXXXXXXXXXXXXX....                  ",
"  ....XXXXXXXXXXXXXXXXXXXXXXXXXXXXXXXXXXXX....                  ",
"    ....XXXXXXXXXXXXXXXXXXXXXXXXXXXXXXXXXX....                  ",
"      ....XXXXXXXXXXXXXXXXXXXXXXXXXXXXXXXX....                  ",
"        ....XXXXXXXXXXXXXXXXXXXXXXXXXXXXXX....                  ",
"          ....XXXXXXXXXXXXXXXXXXXXXXXXXXXX....                  ",
"            ....XXXXXXXXXXXXXXXXXXXXXXXXXX....                  ",
"              ....XXXXXXXXXXXXXXXXXXXXXXXX....                  ",
"                ....XXXXXXXXXXXXXXXXXXXXXX....                  ",
"                  ....XXXXXXXXXXXXXXXXXX....                    ",
"                    ....XXXXXXXXXXXXXXXX....                    ",
"                      ....XXXXXXXXXXXX....                      ",
"                        ....XXXXXXXX....                        ",
"                          ....XXXX....                          ",
"                                                                ",
"                                                                ",
"                                                                ",
"                                                                ",
"                                                                ",
"                                                                ",
"                                                                ",
"                                                                ",
"                                                                ",
"                                                                ",
"                                                                ",
"                                                                ",
"                                                                ",
"                                                                ",
"                                                                ",
"                                                                ",
"                                                                "
};
